<?xml version="1.0" standalone="no"?>
<!DOCTYPE svg PUBLIC "-//W3C//DTD SVG 20010904//EN"
 "http://www.w3.org/TR/2001/REC-SVG-20010904/DTD/svg10.dtd">
<svg version="1.0" xmlns="http://www.w3.org/2000/svg"
 width="1987.000000pt" height="1987.000000pt" viewBox="0 0 1987.000000 1987.000000"
 preserveAspectRatio="xMidYMid meet">
<metadata>
Created by potrace 1.14, written by Peter Selinger 2001-2017
</metadata>
<g transform="translate(0.000000,1987.000000) scale(0.100000,-0.100000)"
fill="#000000" stroke="none">
<path d="M9422 19589 c-1931 -91 -3791 -762 -5337 -1923 -368 -276 -672 -542
-1031 -900 -358 -359 -624 -663 -900 -1031 -1010 -1344 -1654 -2935 -1858
-4592 -57 -457 -61 -542 -61 -1213 0 -660 3 -728 56 -1165 200 -1670 846
-3277 1863 -4630 276 -368 542 -672 900 -1031 285 -285 496 -475 763 -691 761
-613 1599 -1104 2498 -1461 2437 -969 5192 -902 7575 185 2436 1111 4319 3202
5163 5733 1005 3012 467 6331 -1437 8865 -276 368 -542 672 -900 1031 -359
358 -663 624 -1031 900 -1798 1351 -4010 2030 -6263 1923z m3522 -3576 c75
-233 107 -506 87 -736 -60 -712 -481 -1257 -1266 -1642 -215 -105 -331 -150
-1120 -432 -1154 -412 -2736 -917 -3194 -1019 -618 -138 -1272 -436 -1691
-771 -110 -88 -313 -285 -349 -340 -37 -56 -95 -233 -120 -370 -48 -256 -28
-471 61 -648 176 -349 629 -505 1323 -455 430 31 795 93 1068 180 67 22 122
38 124 37 3 -4 -446 -730 -460 -743 -23 -22 -486 34 -800 96 -823 164 -1407
445 -1677 810 -188 254 -317 852 -280 1300 41 495 210 916 527 1310 362 450
998 882 1618 1098 670 233 1838 595 2870 891 690 197 1529 426 1785 486 245
58 553 175 755 288 340 189 567 421 667 685 17 45 33 82 34 82 2 0 19 -48 38
-107z m3025 -2142 c15 -117 14 -335 -3 -471 -118 -950 -788 -1891 -1946 -2736
-609 -444 -1399 -881 -2285 -1264 -215 -93 -665 -274 -860 -345 -71 -26 -134
-51 -138 -55 -4 -4 88 -10 205 -13 390 -11 740 -72 987 -172 312 -127 465
-331 432 -576 -39 -291 -290 -636 -776 -1069 -540 -480 -637 -572 -692 -657
-156 -239 -216 -464 -163 -607 38 -100 120 -162 270 -203 91 -25 424 -25 595
0 256 38 601 182 1040 435 354 204 622 406 1033 779 517 470 947 944 1191
1315 25 37 46 66 48 64 6 -6 -16 -200 -38 -336 -135 -818 -525 -1656 -1086
-2335 -703 -849 -1750 -1538 -2706 -1779 -244 -62 -567 -106 -771 -106 -197 0
-470 43 -646 101 -594 196 -910 676 -860 1306 25 301 109 588 274 928 103 212
180 347 312 545 93 139 116 167 227 267 259 236 391 335 749 563 128 81 283
230 321 309 55 112 27 206 -83 279 -140 94 -307 132 -905 207 -457 57 -902 93
-1003 81 l-53 -6 25 42 c14 24 232 390 483 815 l458 772 45 7 c121 17 357 70
531 118 1392 390 2942 1304 4438 2616 327 287 543 490 931 880 217 218 398
394 401 391 4 -3 12 -44 18 -90z m-4612 -1416 c19 -6 11 -15 -62 -74 -309
-247 -702 -655 -996 -1032 -341 -437 -554 -783 -872 -1414 -251 -499 -417
-795 -678 -1215 -784 -1262 -1645 -2214 -2223 -2457 -156 -66 -467 -135 -761
-169 -184 -21 -565 -24 -710 -5 -631 82 -1005 349 -1124 805 -64 245 -52 574
34 919 48 191 157 501 246 701 l22 50 24 -85 c114 -395 382 -731 684 -857 327
-136 758 -76 1219 171 196 104 448 272 636 423 263 211 688 731 1094 1339 309
463 723 1154 848 1417 190 401 486 764 833 1023 327 244 740 409 1139 454 52
6 109 13 125 15 44 6 496 -2 522 -9z"/>
</g>
</svg>
